{
  "accessors": [
    {
      "bufferView": 2,
      "componentType": 5126,
      "count": 968,
      "max": [
        216.36212158203125,
        26.435728073120117,
        221.48983764648438
      ],
      "min": [
        -5.127708435058594,
        -10.885993957519531,
        -0.0774688720703125
      ],
      "type": "VEC3"
    },
    {
      "bufferView": 2,
      "byteOffset": 11616,
      "componentType": 5126,
      "count": 968,
      "max": [
        1.0,
        1.0,
        1.0
      ],
      "min": [
        -1.0,
        -1.0,
        -1.0
      ],
      "type": "VEC3"
    },
    {
      "bufferView": 3,
      "componentType": 5126,
      "count": 968,
      "max": [
        1.0,
        1.0,
        0.9992799162864685,
        1.0
      ],
      "min": [
        -1.0,
        -1.0,
        -1.0,
        1.0
      ],
      "type": "VEC4"
    },
    {
      "bufferView": 1,
      "componentType": 5126,
      "count": 968,
      "max": [
        0.999649703502655,
        0.9950979948043823
      ],
      "min": [
        0.00035026256227865815,
        0.003805069252848625
      ],
      "type": "VEC2"
    },
    {
      "bufferView": 1,
      "byteOffset": 7744,
      "componentType": 5126,
      "count": 968,
      "max": [
        0.999649703502655,
        0.9950979948043823
      ],
      "min": [
        0.00035026256227865815,
        0.003805069252848625
      ],
      "type": "VEC2"
    },
    {
      "bufferView": 1,
      "byteOffset": 15488,
      "componentType": 5126,
      "count": 968,
      "max": [
        0.999649703502655,
        0.9950979948043823
      ],
      "min": [
        0.00035026256227865815,
        0.003805069252848625
      ],
      "type": "VEC2"
    },
    {
      "bufferView": 1,
      "byteOffset": 23232,
      "componentType": 5126,
      "count": 968,
      "max": [
        0.999649703502655,
        0.9950979948043823
      ],
      "min": [
        0.00035026256227865815,
        0.003805069252848625
      ],
      "type": "VEC2"
    },
    {
      "bufferView": 1,
      "byteOffset": 30976,
      "componentType": 5126,
      "count": 968,
      "max": [
        0.999649703502655,
        0.9950979948043823
      ],
      "min": [
        0.00035026256227865815,
        0.003805069252848625
      ],
      "type": "VEC2"
    },
    {
      "bufferView": 1,
      "byteOffset": 38720,
      "componentType": 5126,
      "count": 968,
      "max": [
        0.999649703502655,
        0.9950979948043823
      ],
      "min": [
        0.00035026256227865815,
        0.003805069252848625
      ],
      "type": "VEC2"
    },
    {
      "bufferView": 1,
      "byteOffset": 46464,
      "componentType": 5126,
      "count": 968,
      "max": [
        0.999649703502655,
        0.9950979948043823
      ],
      "min": [
        0.00035026256227865815,
        0.003805069252848625
      ],
      "type": "VEC2"
    },
    {
      "bufferView": 1,
      "byteOffset": 54208,
      "componentType": 5126,
      "count": 968,
      "max": [
        0.999649703502655,
        0.9950979948043823
      ],
      "min": [
        0.00035026256227865815,
        0.003805069252848625
      ],
      "type": "VEC2"
    },
    {
      "bufferView": 1,
      "byteOffset": 61952,
      "componentType": 5126,
      "count": 968,
      "max": [
        0.999649703502655,
        0.9950979948043823
      ],
      "min": [
        0.00035026256227865815,
        0.003805069252848625
      ],
      "type": "VEC2"
    },
    {
      "bufferView": 1,
      "byteOffset": 69696,
      "componentType": 5126,
      "count": 968,
      "max": [
        0.999649703502655,
        0.9950979948043823
      ],
      "min": [
        0.00035026256227865815,
        0.003805069252848625
      ],
      "type": "VEC2"
    },
    {
      "bufferView": 0,
      "componentType": 5125,
      "count": 2508,
      "type": "SCALAR"
    }
  ],
  "asset": {
    "extras": {
      "author": "Thunder (https://sketchfab.com/thunderpwn)",
      "license": "CC-BY-SA-4.0 (http://creativecommons.org/licenses/by-sa/4.0/)",
      "source": "https://sketchfab.com/3d-models/snowy-log-fence-9c634839dc2c4db0b89927088c559a3b",
      "title": "Snowy Log Fence"
    },
    "generator": "Sketchfab-12.66.0",
    "version": "2.0"
  },
  "bufferViews": [
    {
      "buffer": 0,
      "byteLength": 10032,
      "name": "floatBufferViews",
      "target": 34963
    },
    {
      "buffer": 0,
      "byteLength": 77440,
      "byteOffset": 10032,
      "byteStride": 8,
      "name": "floatBufferViews",
      "target": 34962
    },
    {
      "buffer": 0,
      "byteLength": 23232,
      "byteOffset": 87472,
      "byteStride": 12,
      "name": "floatBufferViews",
      "target": 34962
    },
    {
      "buffer": 0,
      "byteLength": 15488,
      "byteOffset": 110704,
      "byteStride": 16,
      "name": "floatBufferViews",
      "target": 34962
    }
  ],
  "buffers": [
    {
      "byteLength": 126192,
      "uri": "scene.bin"
    }
  ],
  "images": [
    {
      "uri": "textures/DefaultMaterial_baseColor.png"
    },
    {
      "uri": "textures/DefaultMaterial_metallicRoughness.png"
    },
    {
      "uri": "textures/DefaultMaterial_normal.png"
    }
  ],
  "materials": [
    {
      "doubleSided": true,
      "name": "DefaultMaterial",
      "normalTexture": {
        "index": 2
      },
      "pbrMetallicRoughness": {
        "baseColorTexture": {
          "index": 0
        },
        "metallicRoughnessTexture": {
          "index": 1
        }
      }
    }
  ],
  "meshes": [
    {
      "name": "Cylinder_DefaultMaterial_0",
      "primitives": [
        {
          "attributes": {
            "NORMAL": 1,
            "POSITION": 0,
            "TANGENT": 2,
            "TEXCOORD_0": 3,
            "TEXCOORD_1": 4,
            "TEXCOORD_2": 5,
            "TEXCOORD_3": 6,
            "TEXCOORD_4": 7,
            "TEXCOORD_5": 8,
            "TEXCOORD_6": 9,
            "TEXCOORD_7": 10,
            "TEXCOORD_8": 11,
            "TEXCOORD_9": 12
          },
          "indices": 13,
          "material": 0,
          "mode": 4
        }
      ]
    }
  ],
  "nodes": [
    {
      "children": [
        1
      ],
      "matrix": [
        1.0,
        0.0,
        0.0,
        0.0,
        0.0,
        2.220446049250313e-16,
        -1.0,
        0.0,
        0.0,
        1.0,
        2.220446049250313e-16,
        0.0,
        0.0,
        0.0,
        0.0,
        1.0
      ],
      "name": "Sketchfab_model"
    },
    {
      "children": [
        2
      ],
      "matrix": [
        1.0,
        0.0,
        0.0,
        0.0,
        0.0,
        0.0,
        1.0,
        0.0,
        0.0,
        -1.0,
        0.0,
        0.0,
        0.0,
        0.0,
        0.0,
        1.0
      ],
      "name": "Snowy_logwall.fbx"
    },
    {
      "children": [
        3
      ],
      "name": "RootNode"
    },
    {
      "children": [
        4
      ],
      "matrix": [
        1.0,
        0.0,
        0.0,
        0.0,
        0.0,
        -1.331580541386046e-07,
        -0.9999999999999911,
        0.0,
        0.0,
        0.9999999999999911,
        -1.331580541386046e-07,
        0.0,
        0.0,
        0.0,
        0.0,
        1.0
      ],
      "name": "Cylinder"
    },
    {
      "mesh": 0,
      "name": "Cylinder_DefaultMaterial_0"
    }
  ],
  "samplers": [
    {
      "magFilter": 9729,
      "minFilter": 9987,
      "wrapS": 10497,
      "wrapT": 10497
    }
  ],
  "scene": 0,
  "scenes": [
    {
      "name": "Sketchfab_Scene",
      "nodes": [
        0
      ]
    }
  ],
  "textures": [
    {
      "sampler": 0,
      "source": 0
    },
    {
      "sampler": 0,
      "source": 1
    },
    {
      "sampler": 0,
      "source": 2
    }
  ]
}
